<?xml version="1.0" encoding="UTF-8"?>
<svg width="1680px" height="1028px" viewBox="0 0 1680 1028" version="1.1" xmlns="http://www.w3.org/2000/svg" xmlns:xlink="http://www.w3.org/1999/xlink">
    <!-- Generator: Sketch 48.2 (47327) - http://www.bohemiancoding.com/sketch -->
    <title>bamboo-orange</title>
    <desc>Created with Sketch.</desc>
    <defs>
        <linearGradient x1="62.0591843%" y1="1.2490009e-14%" x2="40.801964%" y2="100%" id="linearGradient-1">
            <stop stop-color="#730CBF" offset="0%"></stop>
            <stop stop-color="#FD8C00" offset="100%"></stop>
        </linearGradient>
        <linearGradient x1="50%" y1="23.1226571%" x2="50%" y2="87.6558419%" id="linearGradient-2">
            <stop stop-color="#E2E2E2" offset="0%"></stop>
            <stop stop-color="#000000" offset="100%"></stop>
        </linearGradient>
    </defs>
    <g id="Page-1" stroke="none" stroke-width="1" fill="none" fill-rule="evenodd">
        <g id="bamboo-orange" transform="translate(-507.000000, -93.000000)" fill-rule="nonzero">
            <rect id="path-2" fill="url(#linearGradient-1)" x="507" y="93" width="1680" height="1028"></rect>
            <path d="M1033.67115,1456.67317 C1033.67115,1240.46925 1167.38813,1135.08238 1274.79068,1050.40108 C1374.44721,971.847069 1426.72062,926.033069 1427.66436,832.839616 C1426.72062,739.646163 1374.44721,693.856623 1274.79068,615.302614 C1182.9292,542.875891 1072.96507,454.36657 1042.74087,298.334801 C1040.7921,288.807544 1039.16201,279.023454 1037.83832,268.970302 C1037.27453,264.31063 1036.01212,260.238002 1035.5954,255.468259 C1034.68843,240.523062 1033.67115,225.198732 1033.67115,209.042754 C1033.67115,-2.318042 1167.38813,-107.717147 1274.79068,-192.386212 C1375.35418,-271.649568 1427.83595,-317.426878 1427.83595,-412.344777 C1427.83595,-507.250446 1375.37869,-553.027755 1274.79068,-632.278881 C1167.38813,-716.947946 1033.67115,-822.322591 1033.67115,-1033.67115 L1265.42682,-1033.67115 C1265.42682,-938.777714 1317.88407,-893.000408 1418.47208,-813.749283 C1525.87463,-729.080217 1659.59161,-623.693342 1659.59161,-412.344777 C1659.59161,-200.983981 1525.87463,-95.597106 1418.47208,-10.915811 C1317.90858,68.3475452 1265.42682,114.124854 1265.42682,209.042754 C1265.42682,303.960653 1317.90858,349.737962 1418.47208,429.001318 C1525.87463,513.682613 1659.59161,619.069488 1659.59161,830.430284 C1659.59161,1046.62197 1525.89915,1152.02108 1418.47208,1236.71461 C1317.90858,1315.97796 1265.42682,1361.75527 1265.42682,1456.67317 L1265.42682,1659.59161 L1033.67115,1659.59161 L1033.67115,1456.67317 Z" id="bamboo2" fill="url(#linearGradient-2)" opacity="0.0896399471" style="mix-blend-mode: multiply;" transform="translate(1346.631383, 312.960226) rotate(-90.000000) translate(-1346.631383, -312.960226) "></path>
        </g>
    </g>
</svg>