<?xml version="1.0" encoding="UTF-8"?>
<svg width="1680px" height="1024px" viewBox="0 0 1680 1024" version="1.1" xmlns="http://www.w3.org/2000/svg" xmlns:xlink="http://www.w3.org/1999/xlink">
    <!-- Generator: Sketch 48.2 (47327) - http://www.bohemiancoding.com/sketch -->
    <title>austin-chan-275640</title>
    <desc>Created with Sketch.</desc>
    <defs>
        <linearGradient x1="-11.6066448%" y1="112.470159%" x2="90.6075661%" y2="0%" id="linearGradient-1">
            <stop stop-color="#D1628B" offset="0%"></stop>
            <stop stop-color="#5E0D8B" offset="100%"></stop>
        </linearGradient>
        <linearGradient x1="50%" y1="23.1226571%" x2="50%" y2="87.6558419%" id="linearGradient-2">
            <stop stop-color="#E2E2E2" offset="0%"></stop>
            <stop stop-color="#000000" offset="100%"></stop>
        </linearGradient>
    </defs>
    <g id="main8" stroke="none" stroke-width="1" fill="none" fill-rule="evenodd">
        <g id="austin-chan-275640">
            <rect id="Mask" fill="url(#linearGradient-1)" x="0" y="0" width="1680" height="1026"></rect>
            <path d="M-458.44932,2627.39198 C-458.44932,2227.77887 -211.298129,2032.99065 -12.7842992,1876.47287 C171.412431,1731.28026 268.030198,1646.60152 269.774528,1474.35059 C268.030198,1302.09967 171.412431,1217.46614 -12.7842992,1072.27352 C-182.573316,938.406071 -385.821756,774.812899 -441.685628,486.416922 C-445.287556,468.807542 -448.30049,450.723455 -450.747083,432.142056 C-451.78915,423.529509 -454.122475,416.002008 -454.892699,407.186016 C-456.569068,379.562573 -458.44932,351.238372 -458.44932,321.377023 C-458.44932,-69.2844661 -211.298129,-264.095293 -12.7842992,-420.590461 C173.088801,-567.094171 270.091679,-651.705093 270.091679,-827.143341 C270.091679,-1002.55899 173.134108,-1087.16991 -12.7842992,-1233.65101 C-211.298129,-1390.14618 -458.44932,-1584.9118 -458.44932,-1975.55068 L-30.0916787,-1975.55068 C-30.0916787,-1800.15764 66.865892,-1715.54672 252.784299,-1569.06561 C451.298129,-1412.57045 698.44932,-1217.78223 698.44932,-827.143341 C698.44932,-436.481852 451.298129,-241.69363 252.784299,-85.1758575 C66.9111993,61.3278521 -30.0916787,145.938774 -30.0916787,321.377023 C-30.0916787,496.815272 66.9111993,581.426194 252.784299,727.929903 C451.298129,884.447676 698.44932,1079.2359 698.44932,1469.89739 C698.44932,1869.48789 451.343436,2064.29872 252.784299,2220.8391 C66.9111993,2367.34281 -30.0916787,2451.95373 -30.0916787,2627.39198 L-30.0916787,3002.44932 L-458.44932,3002.44932 L-458.44932,2627.39198 Z" id="bamboo2" fill="url(#linearGradient-2)" style="mix-blend-mode: multiply;" opacity="0.0896399471" transform="translate(120.000000, 513.449320) rotate(-90.000000) translate(-120.000000, -513.449320) "></path>
        </g>
    </g>
</svg>