<?xml version="1.0" encoding="UTF-8"?>
<svg width="41px" height="153px" viewBox="0 0 41 153" version="1.1" xmlns="http://www.w3.org/2000/svg" xmlns:xlink="http://www.w3.org/1999/xlink">
    <!-- Generator: Sketch 48.2 (47327) - http://www.bohemiancoding.com/sketch -->
    <title>logo</title>
    <desc>Created with Sketch.</desc>
    <defs></defs>
    <g id="menu/light/home" stroke="none" stroke-width="1" fill="none" fill-rule="evenodd" transform="translate(-60.000000, -40.000000)">
        <g id="logo" transform="translate(60.000000, 40.000000)" fill="#FFFFFF">
            <path d="M38.7879974,41.1548947 C38.7879974,46.4785789 34.1891641,48.8622632 29.6313308,48.8622632 L11.2402026,48.8622632 C6.70970256,48.8622632 2.13662564,46.4785789 2.13662564,41.1548947 C2.13662564,35.8312105 6.70970256,33.4475263 11.2402026,33.4475263 L29.6313308,33.4475263 C34.1891641,33.4475263 38.7879974,35.8312105 38.7879974,41.1548947 M-0.000105128205,41.1548947 C-0.000105128205,47.9212105 5.64475385,50.9506842 11.2402026,50.9506842 L29.6313308,50.9506842 C35.2525359,50.9506842 40.9252538,47.9212105 40.9252538,41.1548947 C40.9252538,34.3891053 35.2525359,31.3591053 29.6313308,31.3591053 L11.2402026,31.3591053 C5.64475385,31.3591053 -0.000105128205,34.3891053 -0.000105128205,41.1548947" id="Fill-1"></path>
            <path d="M31.6978545,58.090585 C35.9149167,58.090585 37.8789492,60.1606236 37.8789492,64.606327 L37.8789492,70.9838953 C37.5821273,70.9618081 20.4029721,70.9618081 20.4029721,70.9618081 L20.4029721,64.8708605 C20.4029721,60.0548102 21.8349161,58.090585 25.3451352,58.090585 L31.6978545,58.090585 Z M3.0673203,70.9618081 L3.0673203,64.8184675 C3.0673203,60.883853 4.70583987,59.2047075 8.54731013,59.2047075 L13.9850459,59.2047075 C17.1927049,59.2047075 18.3356518,62.1870015 18.3356518,64.9771876 L18.3356518,70.9618081 L3.0673203,70.9618081 Z M19.1144833,60.1642192 C18.0315267,58.2960479 16.1702603,57.1685702 13.9850459,57.1685702 L8.54731013,57.1685702 C3.53941842,57.1685702 1,59.7425066 1,64.8184675 L1,73 L40,73 L40,64.6587201 C40,59.0752659 37.0516038,56 31.6978545,56 L25.3451352,56 C21.4880153,56 19.8776651,57.9508702 19.1144833,60.1642192 Z" id="Fill-4"></path>
            <path d="M38.7879974,31.1967895 C38.7879974,36.5220526 34.1891641,38.9057368 29.6313308,38.9057368 L11.2402026,38.9057368 C6.70970256,38.9057368 2.13662564,36.5220526 2.13662564,31.1967895 C2.13662564,25.8731053 6.70970256,23.4894211 11.2402026,23.4894211 L29.6313308,23.4894211 C34.1891641,23.4894211 38.7879974,25.8731053 38.7879974,31.1967895 M-0.000105128205,31.1967895 C-0.000105128205,37.9631053 5.64475385,40.9925789 11.2402026,40.9925789 L29.6313308,40.9925789 C35.2525359,40.9925789 40.9252538,37.9625789 40.9252538,31.1967895 C40.9252538,24.431 35.2525359,21.401 29.6313308,21.401 L11.2402026,21.401 C5.64475385,21.401 -0.000105128205,24.431 -0.000105128205,31.1967895" id="Fill-6"></path>
            <polygon id="Fill-9" points="1 12 1 18 2.9609026 18 3.05375726 13.9288147 40 13.9297876 40 12"></polygon>
            <polygon id="Fill-11" points="1 0 1 6 2.9609026 6 3.05375726 1.92881466 40 1.92978758 40 0"></polygon>
            <path d="M31.6978545,138.090585 C35.9149167,138.090585 37.8789492,140.160624 37.8789492,144.606327 L37.8789492,150.983895 C37.5821273,150.961808 20.4029721,150.961808 20.4029721,150.961808 L20.4029721,144.870861 C20.4029721,140.05481 21.8349161,138.090585 25.3451352,138.090585 L31.6978545,138.090585 Z M3.0673203,150.961808 L3.0673203,144.818467 C3.0673203,140.883853 4.70583987,139.204708 8.54731013,139.204708 L13.9850459,139.204708 C17.1927049,139.204708 18.3351301,142.187001 18.3351301,144.977188 L18.3351301,150.961808 L3.0673203,150.961808 Z M19.1144833,140.164219 C18.0315267,138.296048 16.1702603,137.16857 13.9850459,137.16857 L8.54731013,137.16857 C3.53941842,137.16857 1,139.742507 1,144.818467 L1,153 L40,153 L40,144.65872 C40,139.075266 37.0516038,136 31.6978545,136 L25.3451352,136 C21.4880153,136 19.8776651,137.95087 19.1144833,140.164219 Z" id="Fill-13"></path>
            <path d="M1,80.6087318 C1,81.4585403 1.35892127,81.9827115 2.22210349,82.3272568 L33.4894077,91.6698982 L2.12573131,101.742072 C1.78816819,101.869701 1,102.165926 1,103.176453 L1,104 L40,104 L40,101.918022 L8.16592312,101.918022 L37.4724441,92.4671846 L37.4724441,90.7996061 L8.35970935,82.0840792 L40,82.0840792 L40,80 L1,80 L1,80.6087318 Z" id="Fill-15"></path>
            <path d="M27.5068964,125.237463 L5.57802674,119.42318 L27.5068964,113.751867 L27.5068964,125.237463 Z M1,118.481073 L1,120.345549 L41,131 L41,128.844784 L29.6011732,125.757596 L29.6011732,113.18639 L41,110.216032 L41,108 L1,118.481073 Z" id="Fill-17"></path>
        </g>
    </g>
</svg>