<?xml version="1.0" encoding="UTF-8"?>
<svg width="1680px" height="1024px" viewBox="0 0 1680 1024" version="1.1" xmlns="http://www.w3.org/2000/svg" xmlns:xlink="http://www.w3.org/1999/xlink">
    <!-- Generator: Sketch 48.2 (47327) - http://www.bohemiancoding.com/sketch -->
    <title>bamboo-orange</title>
    <desc>Created with Sketch.</desc>
    <defs>
        <linearGradient x1="82.2069995%" y1="1.2490009e-14%" x2="25.4343965%" y2="100%" id="linearGradient-1">
            <stop stop-color="#730CBF" offset="0%"></stop>
            <stop stop-color="#FD8C00" offset="100%"></stop>
        </linearGradient>
        <rect id="path-2" x="0" y="0" width="1680" height="1028"></rect>
        <linearGradient x1="50%" y1="23.1226571%" x2="50%" y2="87.6558419%" id="linearGradient-4">
            <stop stop-color="#E2E2E2" offset="0%"></stop>
            <stop stop-color="#000000" offset="100%"></stop>
        </linearGradient>
    </defs>
    <g id="main9" stroke="none" stroke-width="1" fill="none" fill-rule="evenodd">
        <g id="bamboo-orange">
            <mask id="mask-3" fill="white">
                <use xlink:href="#path-2"></use>
            </mask>
            <use id="Mask" fill="url(#linearGradient-1)" xlink:href="#path-2"></use>
            <path d="M526.671152,1363.67317 C526.671152,1147.46925 660.388127,1042.08238 767.790679,957.401082 C867.447207,878.847073 919.720616,833.033073 920.664356,739.83962 C919.720616,646.646167 867.447207,600.856627 767.790679,522.302618 C675.929201,449.875895 565.965068,361.366574 535.740865,205.334805 C533.792102,195.807548 532.162005,186.023458 530.838318,175.970306 C530.274525,171.310634 529.012119,167.238006 528.595402,162.468263 C527.688431,147.523066 526.671152,132.198736 526.671152,116.042758 C526.671152,-95.318038 660.388127,-200.717143 767.790679,-285.386208 C868.354178,-364.649564 920.835946,-410.426874 920.835946,-505.344773 C920.835946,-600.250442 868.378691,-646.027751 767.790679,-725.278877 C660.388127,-809.947942 526.671152,-915.322587 526.671152,-1126.67115 L758.426814,-1126.67115 C758.426814,-1031.77771 810.884069,-986.000404 911.47208,-906.749279 C1018.87463,-822.080213 1152.59161,-716.693338 1152.59161,-505.344773 C1152.59161,-293.983977 1018.87463,-188.597102 911.47208,-103.915807 C810.908581,-24.6524508 758.426814,21.1248584 758.426814,116.042758 C758.426814,210.960657 810.908581,256.737966 911.47208,336.001322 C1018.87463,420.682617 1152.59161,526.069492 1152.59161,737.430288 C1152.59161,953.621978 1018.89915,1059.02108 911.47208,1143.71461 C810.908581,1222.97796 758.426814,1268.75527 758.426814,1363.67317 L758.426814,1566.59161 L526.671152,1566.59161 L526.671152,1363.67317 Z" id="bamboo2" fill="url(#linearGradient-4)" style="mix-blend-mode: multiply;" opacity="0.0896399471" mask="url(#mask-3)" transform="translate(839.631380, 219.960227) rotate(-90.000000) translate(-839.631380, -219.960227) "></path>
        </g>
    </g>
</svg>