<?xml version="1.0" encoding="UTF-8"?>
<svg width="1287px" height="10px" viewBox="0 0 1287 10" version="1.1" xmlns="http://www.w3.org/2000/svg" xmlns:xlink="http://www.w3.org/1999/xlink">
    <!-- Generator: Sketch 48.2 (47327) - http://www.bohemiancoding.com/sketch -->
    <title>Combined Shape</title>
    <desc>Created with Sketch.</desc>
    <defs></defs>
    <g id="main3" stroke="none" stroke-width="1" fill="none" fill-rule="evenodd" transform="translate(-20.000000, -460.000000)">
        <path d="M1266.16933,460.001129 L1266.16933,460 C1266.19229,460 1266.21518,460.000094 1266.23799,460.000281 C1266.26081,460.000094 1266.2837,460 1266.30666,460 L1266.30666,460.001129 C1269.67922,460.056807 1271.37888,462.160627 1272.74815,463.854867 C1274.04707,465.463005 1274.79736,466.301658 1276.35287,466.301658 C1277.90857,466.301658 1278.65886,465.462613 1279.95799,463.854867 C1281.34571,462.137783 1283.07321,460 1286.53741,460 C1286.80221,460 1287.05337,460.016264 1287.29832,460.030764 C1287.3765,460.037426 1287.44325,460.057608 1287.51962,460.066622 C1287.68439,460.087784 1287.84476,460.113845 1288.00091,460.145001 C1290.55827,460.628206 1292.00894,462.386244 1293.19601,463.854867 C1294.48351,465.448113 1295.234,466.283827 1296.76144,466.298915 C1298.28888,466.283827 1299.03978,465.448113 1300.32728,463.854867 C1301.7152,462.137783 1303.44249,460 1306.98608,460 L1306.98608,463.705164 C1305.43037,463.705164 1304.68008,464.544209 1303.38096,466.151955 C1301.99283,467.869431 1300.26534,470.006822 1296.72195,470.006822 C1293.25775,470.006822 1291.53046,467.869039 1290.14253,466.151955 C1288.84341,464.544209 1288.09312,463.705164 1286.53741,463.705164 C1284.98171,463.705164 1284.23142,464.544209 1282.93229,466.151955 C1281.54436,467.869039 1279.81707,470.006822 1276.35287,470.006822 C1272.88886,470.006822 1271.16157,467.869039 1269.77385,466.151955 C1268.49418,464.567665 1267.747,463.730207 1266.23799,463.705717 C1264.72898,463.730207 1263.9818,464.567665 1262.70214,466.151955 C1261.31441,467.869039 1259.58712,470.006822 1256.12312,470.006822 C1252.65891,470.006822 1250.93162,467.869039 1249.5437,466.151955 C1248.24457,464.544209 1247.49428,463.705164 1245.93858,463.705164 C1244.38287,463.705164 1243.63258,464.544209 1242.33345,466.151955 C1240.94553,467.869039 1239.21824,470.006822 1235.75403,470.006822 C1232.21065,470.006822 1230.48316,467.869431 1229.09503,466.151955 C1227.7959,464.544209 1227.04561,463.705164 1225.48991,463.705164 L20,463.705164 L20,460 L1225.48991,460 C1229.03349,460 1230.76078,462.137783 1232.14871,463.854867 C1233.43621,465.448113 1234.1871,466.283827 1235.71454,466.298915 C1237.24198,466.283827 1237.99247,465.448113 1239.27997,463.854867 C1240.46705,462.386244 1241.91772,460.628206 1244.47508,460.145001 C1244.63123,460.113845 1244.79159,460.087784 1244.95636,460.066622 C1245.03273,460.057608 1245.09948,460.037426 1245.17766,460.030764 C1245.42261,460.016264 1245.67378,460 1245.93858,460 C1249.40278,460 1251.13027,462.137783 1252.518,463.854867 C1253.81712,465.462613 1254.56741,466.301658 1256.12312,466.301658 C1257.67862,466.301658 1258.42891,465.463005 1259.72784,463.854867 C1261.0971,462.160627 1262.79676,460.056807 1266.16933,460.001129 Z" id="Combined-Shape" fill="#FFFFFF"></path>
    </g>
</svg>